<svg xmlns="http://www.w3.org/2000/svg" viewBox="0 0 24 24" fill="none">
  <path d="M13 5C14.2 6.5 15.7 7.4 17.5 7.7V10.1C16 9.9 14.6 9.4 13.2 8.4V14.5C13.2 17.5 10.8 20 7.8 20C4.8 20 2.4 17.5 2.4 14.5C2.4 11.6 4.7 9.1 7.6 9V11.5C6.1 11.6 4.9 12.9 4.9 14.5C4.9 16.2 6.2 17.6 7.8 17.6C9.5 17.6 10.7 16.2 10.7 14.5V4.5H13V5Z" fill="#111111"/>
  <path d="M14 6.2C14.9 7.2 16.1 7.9 17.6 8.2V9.6C16.1 9.3 14.8 8.7 13.8 7.8L14 6.2Z" fill="#00F2EA"/>
  <path d="M10.7 13.1V14.5C10.7 16.2 9.5 17.6 7.8 17.6C7.1 17.6 6.5 17.4 6 17.1C6.5 17.6 7.2 17.9 8 17.9C9.7 17.9 11 16.5 11 14.8V13.4L10.7 13.1Z" fill="#FF004F"/>
</svg>
