<svg xmlns="http://www.w3.org/2000/svg" viewBox="0 0 24 24" fill="none">
  <circle cx="12" cy="12" r="9.2" fill="#ffffff"/>
  <path d="M13.2 6.2C14.2 7.4 15.4 8.1 16.9 8.3V10.5C15.6 10.3 14.3 9.8 13.2 9V14.2C13.2 16.6 11.3 18.5 8.9 18.5C6.5 18.5 4.6 16.6 4.6 14.2C4.6 11.8 6.5 9.9 8.9 9.9V12C7.7 12 6.8 13 6.8 14.2C6.8 15.4 7.7 16.4 8.9 16.4C10.1 16.4 11 15.4 11 14.2V5.5H13.2V6.2Z" fill="#111111"/>
  <path d="M12.5 5.9C13.4 7 14.5 7.7 16 8V9.1C14.6 8.8 13.4 8.2 12.4 7.4L12.5 5.9Z" fill="#00F2EA"/>
  <path d="M10.9 13.2V14.2C10.9 15.7 9.8 16.8 8.4 16.8C7.9 16.8 7.4 16.7 7 16.4C7.4 17 8.1 17.3 8.9 17.3C10.4 17.3 11.5 16.1 11.5 14.7V13.4L10.9 13.2Z" fill="#FF004F"/>
</svg>
